<mxfile host="app.diagrams.net" agent="Mozilla/5.0 (Windows NT 10.0; Win64; x64) AppleWebKit/537.36 (KHTML, like Gecko) Chrome/134.0.0.0 Safari/537.36 OPR/119.0.0.0" version="27.2.0">
  <diagram name="Página-1" id="aCAnEQEBX2HjP4SliDHi">
    <mxGraphModel grid="1" page="1" gridSize="10" guides="1" tooltips="1" connect="1" arrows="1" fold="1" pageScale="1" pageWidth="827" pageHeight="1169" math="0" shadow="0">
      <root>
        <mxCell id="0" />
        <mxCell id="1" parent="0" />
        <mxCell id="MmyS1Xm4OR76rwIX9TRx-47" value=":GruposViewModel" style="shape=umlLifeline;perimeter=lifelinePerimeter;whiteSpace=wrap;html=1;container=0;dropTarget=0;collapsible=0;recursiveResize=0;outlineConnect=0;portConstraint=eastwest;newEdgeStyle={&quot;edgeStyle&quot;:&quot;elbowEdgeStyle&quot;,&quot;elbow&quot;:&quot;vertical&quot;,&quot;curved&quot;:0,&quot;rounded&quot;:0};" vertex="1" parent="1">
          <mxGeometry x="352" y="130" width="130" height="290" as="geometry" />
        </mxCell>
        <mxCell id="MmyS1Xm4OR76rwIX9TRx-90" value="" style="html=1;points=[];perimeter=orthogonalPerimeter;outlineConnect=0;targetShapes=umlLifeline;portConstraint=eastwest;newEdgeStyle={&quot;edgeStyle&quot;:&quot;elbowEdgeStyle&quot;,&quot;elbow&quot;:&quot;vertical&quot;,&quot;curved&quot;:0,&quot;rounded&quot;:0};" vertex="1" parent="MmyS1Xm4OR76rwIX9TRx-47">
          <mxGeometry x="60" y="70" width="10" height="180" as="geometry" />
        </mxCell>
        <mxCell id="MmyS1Xm4OR76rwIX9TRx-50" value="IGrupoRepository&amp;lt;Personagem&amp;gt;" style="shape=umlLifeline;perimeter=lifelinePerimeter;whiteSpace=wrap;html=1;container=0;dropTarget=0;collapsible=0;recursiveResize=0;outlineConnect=0;portConstraint=eastwest;newEdgeStyle={&quot;edgeStyle&quot;:&quot;elbowEdgeStyle&quot;,&quot;elbow&quot;:&quot;vertical&quot;,&quot;curved&quot;:0,&quot;rounded&quot;:0};" vertex="1" parent="1">
          <mxGeometry x="586" y="130" width="110" height="280" as="geometry" />
        </mxCell>
        <mxCell id="MmyS1Xm4OR76rwIX9TRx-93" value="" style="html=1;points=[];perimeter=orthogonalPerimeter;outlineConnect=0;targetShapes=umlLifeline;portConstraint=eastwest;newEdgeStyle={&quot;edgeStyle&quot;:&quot;elbowEdgeStyle&quot;,&quot;elbow&quot;:&quot;vertical&quot;,&quot;curved&quot;:0,&quot;rounded&quot;:0};" vertex="1" parent="MmyS1Xm4OR76rwIX9TRx-50">
          <mxGeometry x="50" y="73" width="10" height="147" as="geometry" />
        </mxCell>
        <mxCell id="MmyS1Xm4OR76rwIX9TRx-54" value=":BatalhaTabPage" style="shape=umlLifeline;perimeter=lifelinePerimeter;whiteSpace=wrap;html=1;container=0;dropTarget=0;collapsible=0;recursiveResize=0;outlineConnect=0;portConstraint=eastwest;newEdgeStyle={&quot;edgeStyle&quot;:&quot;elbowEdgeStyle&quot;,&quot;elbow&quot;:&quot;vertical&quot;,&quot;curved&quot;:0,&quot;rounded&quot;:0};" vertex="1" parent="1">
          <mxGeometry x="150" y="130" width="100" height="320" as="geometry" />
        </mxCell>
        <mxCell id="MmyS1Xm4OR76rwIX9TRx-55" value="" style="html=1;points=[];perimeter=orthogonalPerimeter;outlineConnect=0;targetShapes=umlLifeline;portConstraint=eastwest;newEdgeStyle={&quot;edgeStyle&quot;:&quot;elbowEdgeStyle&quot;,&quot;elbow&quot;:&quot;vertical&quot;,&quot;curved&quot;:0,&quot;rounded&quot;:0};" vertex="1" parent="MmyS1Xm4OR76rwIX9TRx-54">
          <mxGeometry x="45" y="60" width="10" height="240" as="geometry" />
        </mxCell>
        <mxCell id="MmyS1Xm4OR76rwIX9TRx-103" style="edgeStyle=orthogonalEdgeStyle;rounded=0;orthogonalLoop=1;jettySize=auto;html=1;curved=0;" edge="1" parent="MmyS1Xm4OR76rwIX9TRx-54" source="MmyS1Xm4OR76rwIX9TRx-55" target="MmyS1Xm4OR76rwIX9TRx-54">
          <mxGeometry relative="1" as="geometry">
            <mxPoint x="81.75" y="240" as="sourcePoint" />
            <mxPoint x="120" y="270" as="targetPoint" />
            <Array as="points">
              <mxPoint x="110" y="240" />
              <mxPoint x="110" y="270" />
            </Array>
          </mxGeometry>
        </mxCell>
        <mxCell id="MmyS1Xm4OR76rwIX9TRx-65" value=":GrupoRepositoryImpl" style="shape=umlLifeline;perimeter=lifelinePerimeter;whiteSpace=wrap;html=1;container=0;dropTarget=0;collapsible=0;recursiveResize=0;outlineConnect=0;portConstraint=eastwest;newEdgeStyle={&quot;edgeStyle&quot;:&quot;elbowEdgeStyle&quot;,&quot;elbow&quot;:&quot;vertical&quot;,&quot;curved&quot;:0,&quot;rounded&quot;:0};" vertex="1" parent="1">
          <mxGeometry x="804" y="130" width="130" height="280" as="geometry" />
        </mxCell>
        <mxCell id="MmyS1Xm4OR76rwIX9TRx-96" value="" style="html=1;points=[];perimeter=orthogonalPerimeter;outlineConnect=0;targetShapes=umlLifeline;portConstraint=eastwest;newEdgeStyle={&quot;edgeStyle&quot;:&quot;elbowEdgeStyle&quot;,&quot;elbow&quot;:&quot;vertical&quot;,&quot;curved&quot;:0,&quot;rounded&quot;:0};" vertex="1" parent="MmyS1Xm4OR76rwIX9TRx-65">
          <mxGeometry x="59" y="78" width="10" height="112" as="geometry" />
        </mxCell>
        <mxCell id="MmyS1Xm4OR76rwIX9TRx-97" style="edgeStyle=orthogonalEdgeStyle;rounded=0;orthogonalLoop=1;jettySize=auto;html=1;curved=0;" edge="1" parent="MmyS1Xm4OR76rwIX9TRx-65">
          <mxGeometry relative="1" as="geometry">
            <mxPoint x="-157" y="112" as="sourcePoint" />
            <mxPoint x="59" y="112" as="targetPoint" />
            <Array as="points">
              <mxPoint x="-2" y="112" />
              <mxPoint x="-2" y="112" />
            </Array>
          </mxGeometry>
        </mxCell>
        <mxCell id="MmyS1Xm4OR76rwIX9TRx-98" value="3: getAll()" style="text;whiteSpace=wrap;html=1;" vertex="1" parent="MmyS1Xm4OR76rwIX9TRx-65">
          <mxGeometry x="-87" y="91" width="140" height="40" as="geometry" />
        </mxCell>
        <mxCell id="MmyS1Xm4OR76rwIX9TRx-71" value="Diagrama de Sequência - Selecionar Grupo de Personagens" style="text;strokeColor=none;fillColor=none;html=1;fontSize=24;fontStyle=1;verticalAlign=middle;align=center;" vertex="1" parent="1">
          <mxGeometry x="130" y="80" width="670" height="30" as="geometry" />
        </mxCell>
        <mxCell id="MmyS1Xm4OR76rwIX9TRx-88" style="edgeStyle=orthogonalEdgeStyle;rounded=0;orthogonalLoop=1;jettySize=auto;html=1;curved=0;" edge="1" parent="1" source="MmyS1Xm4OR76rwIX9TRx-55" target="MmyS1Xm4OR76rwIX9TRx-90">
          <mxGeometry relative="1" as="geometry">
            <mxPoint x="215" y="210" as="sourcePoint" />
            <mxPoint x="400" y="210" as="targetPoint" />
            <Array as="points">
              <mxPoint x="360" y="210" />
              <mxPoint x="360" y="210" />
            </Array>
          </mxGeometry>
        </mxCell>
        <mxCell id="MmyS1Xm4OR76rwIX9TRx-89" value="1: fetchTodosOsGrupos()" style="text;whiteSpace=wrap;html=1;" vertex="1" parent="1">
          <mxGeometry x="235" y="190" width="140" height="40" as="geometry" />
        </mxCell>
        <mxCell id="MmyS1Xm4OR76rwIX9TRx-94" style="edgeStyle=orthogonalEdgeStyle;rounded=0;orthogonalLoop=1;jettySize=auto;html=1;curved=0;" edge="1" parent="1">
          <mxGeometry relative="1" as="geometry">
            <mxPoint x="420" y="223" as="sourcePoint" />
            <mxPoint x="636" y="223.0344827586207" as="targetPoint" />
            <Array as="points">
              <mxPoint x="575" y="223" />
              <mxPoint x="575" y="223" />
            </Array>
          </mxGeometry>
        </mxCell>
        <mxCell id="MmyS1Xm4OR76rwIX9TRx-95" value="2: getAll()" style="text;whiteSpace=wrap;html=1;" vertex="1" parent="1">
          <mxGeometry x="490" y="203" width="140" height="40" as="geometry" />
        </mxCell>
        <mxCell id="MmyS1Xm4OR76rwIX9TRx-100" value="&lt;span style=&quot;font-size: 12px; text-align: left; text-wrap-mode: wrap;&quot;&gt;List&amp;lt;Grupo&amp;lt;Personagem&amp;gt;&amp;gt;&lt;/span&gt;" style="html=1;verticalAlign=bottom;endArrow=open;dashed=1;endSize=8;curved=0;rounded=0;" edge="1" parent="1" source="MmyS1Xm4OR76rwIX9TRx-96">
          <mxGeometry relative="1" as="geometry">
            <mxPoint x="868.5" y="284.9999999999998" as="sourcePoint" />
            <mxPoint x="640.810344827586" y="284.9999999999998" as="targetPoint" />
          </mxGeometry>
        </mxCell>
        <mxCell id="MmyS1Xm4OR76rwIX9TRx-101" value="&lt;span style=&quot;font-size: 12px; text-align: left; text-wrap-mode: wrap;&quot;&gt;List&amp;lt;Grupo&amp;lt;Personagem&amp;gt;&amp;gt;&lt;/span&gt;" style="html=1;verticalAlign=bottom;endArrow=open;dashed=1;endSize=8;curved=0;rounded=0;" edge="1" parent="1" source="MmyS1Xm4OR76rwIX9TRx-93">
          <mxGeometry relative="1" as="geometry">
            <mxPoint x="630" y="300" as="sourcePoint" />
            <mxPoint x="420" y="300" as="targetPoint" />
          </mxGeometry>
        </mxCell>
        <mxCell id="MmyS1Xm4OR76rwIX9TRx-102" value="&lt;span style=&quot;font-size: 12px; text-align: left; text-wrap-mode: wrap;&quot;&gt;List&amp;lt;Grupo&amp;lt;Personagem&amp;gt;&amp;gt;&lt;/span&gt;" style="html=1;verticalAlign=bottom;endArrow=open;dashed=1;endSize=8;curved=0;rounded=0;" edge="1" parent="1">
          <mxGeometry relative="1" as="geometry">
            <mxPoint x="410" y="330" as="sourcePoint" />
            <mxPoint x="200" y="330" as="targetPoint" />
          </mxGeometry>
        </mxCell>
        <mxCell id="MmyS1Xm4OR76rwIX9TRx-104" value="4: &amp;lt;&amp;lt;Grupo selecionado&amp;gt;&amp;gt;" style="text;html=1;align=center;verticalAlign=middle;resizable=0;points=[];autosize=1;strokeColor=none;fillColor=none;" vertex="1" parent="1">
          <mxGeometry x="200" y="348" width="170" height="30" as="geometry" />
        </mxCell>
        <mxCell id="MmyS1Xm4OR76rwIX9TRx-105" value=":GruposViewModel" style="shape=umlLifeline;perimeter=lifelinePerimeter;whiteSpace=wrap;html=1;container=0;dropTarget=0;collapsible=0;recursiveResize=0;outlineConnect=0;portConstraint=eastwest;newEdgeStyle={&quot;edgeStyle&quot;:&quot;elbowEdgeStyle&quot;,&quot;elbow&quot;:&quot;vertical&quot;,&quot;curved&quot;:0,&quot;rounded&quot;:0};" vertex="1" parent="1">
          <mxGeometry x="312" y="570" width="130" height="290" as="geometry" />
        </mxCell>
        <mxCell id="MmyS1Xm4OR76rwIX9TRx-106" value="" style="html=1;points=[];perimeter=orthogonalPerimeter;outlineConnect=0;targetShapes=umlLifeline;portConstraint=eastwest;newEdgeStyle={&quot;edgeStyle&quot;:&quot;elbowEdgeStyle&quot;,&quot;elbow&quot;:&quot;vertical&quot;,&quot;curved&quot;:0,&quot;rounded&quot;:0};" vertex="1" parent="MmyS1Xm4OR76rwIX9TRx-105">
          <mxGeometry x="60" y="70" width="10" height="180" as="geometry" />
        </mxCell>
        <mxCell id="MmyS1Xm4OR76rwIX9TRx-107" value="IGrupoRepository&amp;lt;Inimigo&amp;gt;" style="shape=umlLifeline;perimeter=lifelinePerimeter;whiteSpace=wrap;html=1;container=0;dropTarget=0;collapsible=0;recursiveResize=0;outlineConnect=0;portConstraint=eastwest;newEdgeStyle={&quot;edgeStyle&quot;:&quot;elbowEdgeStyle&quot;,&quot;elbow&quot;:&quot;vertical&quot;,&quot;curved&quot;:0,&quot;rounded&quot;:0};" vertex="1" parent="1">
          <mxGeometry x="546" y="570" width="110" height="280" as="geometry" />
        </mxCell>
        <mxCell id="MmyS1Xm4OR76rwIX9TRx-108" value="" style="html=1;points=[];perimeter=orthogonalPerimeter;outlineConnect=0;targetShapes=umlLifeline;portConstraint=eastwest;newEdgeStyle={&quot;edgeStyle&quot;:&quot;elbowEdgeStyle&quot;,&quot;elbow&quot;:&quot;vertical&quot;,&quot;curved&quot;:0,&quot;rounded&quot;:0};" vertex="1" parent="MmyS1Xm4OR76rwIX9TRx-107">
          <mxGeometry x="50" y="73" width="10" height="147" as="geometry" />
        </mxCell>
        <mxCell id="MmyS1Xm4OR76rwIX9TRx-109" value=":BatalhaTabPage" style="shape=umlLifeline;perimeter=lifelinePerimeter;whiteSpace=wrap;html=1;container=0;dropTarget=0;collapsible=0;recursiveResize=0;outlineConnect=0;portConstraint=eastwest;newEdgeStyle={&quot;edgeStyle&quot;:&quot;elbowEdgeStyle&quot;,&quot;elbow&quot;:&quot;vertical&quot;,&quot;curved&quot;:0,&quot;rounded&quot;:0};" vertex="1" parent="1">
          <mxGeometry x="110" y="570" width="100" height="320" as="geometry" />
        </mxCell>
        <mxCell id="MmyS1Xm4OR76rwIX9TRx-110" value="" style="html=1;points=[];perimeter=orthogonalPerimeter;outlineConnect=0;targetShapes=umlLifeline;portConstraint=eastwest;newEdgeStyle={&quot;edgeStyle&quot;:&quot;elbowEdgeStyle&quot;,&quot;elbow&quot;:&quot;vertical&quot;,&quot;curved&quot;:0,&quot;rounded&quot;:0};" vertex="1" parent="MmyS1Xm4OR76rwIX9TRx-109">
          <mxGeometry x="45" y="60" width="10" height="240" as="geometry" />
        </mxCell>
        <mxCell id="MmyS1Xm4OR76rwIX9TRx-111" style="edgeStyle=orthogonalEdgeStyle;rounded=0;orthogonalLoop=1;jettySize=auto;html=1;curved=0;" edge="1" parent="MmyS1Xm4OR76rwIX9TRx-109" source="MmyS1Xm4OR76rwIX9TRx-110" target="MmyS1Xm4OR76rwIX9TRx-109">
          <mxGeometry relative="1" as="geometry">
            <mxPoint x="81.75" y="240" as="sourcePoint" />
            <mxPoint x="120" y="270" as="targetPoint" />
            <Array as="points">
              <mxPoint x="110" y="240" />
              <mxPoint x="110" y="270" />
            </Array>
          </mxGeometry>
        </mxCell>
        <mxCell id="MmyS1Xm4OR76rwIX9TRx-112" value=":GrupoRepositoryImpl" style="shape=umlLifeline;perimeter=lifelinePerimeter;whiteSpace=wrap;html=1;container=0;dropTarget=0;collapsible=0;recursiveResize=0;outlineConnect=0;portConstraint=eastwest;newEdgeStyle={&quot;edgeStyle&quot;:&quot;elbowEdgeStyle&quot;,&quot;elbow&quot;:&quot;vertical&quot;,&quot;curved&quot;:0,&quot;rounded&quot;:0};" vertex="1" parent="1">
          <mxGeometry x="764" y="570" width="130" height="280" as="geometry" />
        </mxCell>
        <mxCell id="MmyS1Xm4OR76rwIX9TRx-113" value="" style="html=1;points=[];perimeter=orthogonalPerimeter;outlineConnect=0;targetShapes=umlLifeline;portConstraint=eastwest;newEdgeStyle={&quot;edgeStyle&quot;:&quot;elbowEdgeStyle&quot;,&quot;elbow&quot;:&quot;vertical&quot;,&quot;curved&quot;:0,&quot;rounded&quot;:0};" vertex="1" parent="MmyS1Xm4OR76rwIX9TRx-112">
          <mxGeometry x="59" y="78" width="10" height="112" as="geometry" />
        </mxCell>
        <mxCell id="MmyS1Xm4OR76rwIX9TRx-114" style="edgeStyle=orthogonalEdgeStyle;rounded=0;orthogonalLoop=1;jettySize=auto;html=1;curved=0;" edge="1" parent="MmyS1Xm4OR76rwIX9TRx-112">
          <mxGeometry relative="1" as="geometry">
            <mxPoint x="-157" y="112" as="sourcePoint" />
            <mxPoint x="59" y="112" as="targetPoint" />
            <Array as="points">
              <mxPoint x="-2" y="112" />
              <mxPoint x="-2" y="112" />
            </Array>
          </mxGeometry>
        </mxCell>
        <mxCell id="MmyS1Xm4OR76rwIX9TRx-115" value="3: getAll()" style="text;whiteSpace=wrap;html=1;" vertex="1" parent="MmyS1Xm4OR76rwIX9TRx-112">
          <mxGeometry x="-87" y="91" width="140" height="40" as="geometry" />
        </mxCell>
        <mxCell id="MmyS1Xm4OR76rwIX9TRx-116" value="Diagrama de Sequência - Selecionar Grupo de Inimigos" style="text;strokeColor=none;fillColor=none;html=1;fontSize=24;fontStyle=1;verticalAlign=middle;align=center;" vertex="1" parent="1">
          <mxGeometry x="90" y="520" width="670" height="30" as="geometry" />
        </mxCell>
        <mxCell id="MmyS1Xm4OR76rwIX9TRx-117" style="edgeStyle=orthogonalEdgeStyle;rounded=0;orthogonalLoop=1;jettySize=auto;html=1;curved=0;" edge="1" parent="1" source="MmyS1Xm4OR76rwIX9TRx-110" target="MmyS1Xm4OR76rwIX9TRx-106">
          <mxGeometry relative="1" as="geometry">
            <mxPoint x="175" y="650" as="sourcePoint" />
            <mxPoint x="360" y="650" as="targetPoint" />
            <Array as="points">
              <mxPoint x="320" y="650" />
              <mxPoint x="320" y="650" />
            </Array>
          </mxGeometry>
        </mxCell>
        <mxCell id="MmyS1Xm4OR76rwIX9TRx-118" value="1: fetchTodosOsGrupos()" style="text;whiteSpace=wrap;html=1;" vertex="1" parent="1">
          <mxGeometry x="195" y="630" width="140" height="40" as="geometry" />
        </mxCell>
        <mxCell id="MmyS1Xm4OR76rwIX9TRx-119" style="edgeStyle=orthogonalEdgeStyle;rounded=0;orthogonalLoop=1;jettySize=auto;html=1;curved=0;" edge="1" parent="1">
          <mxGeometry relative="1" as="geometry">
            <mxPoint x="380" y="663" as="sourcePoint" />
            <mxPoint x="596" y="663.0344827586207" as="targetPoint" />
            <Array as="points">
              <mxPoint x="535" y="663" />
              <mxPoint x="535" y="663" />
            </Array>
          </mxGeometry>
        </mxCell>
        <mxCell id="MmyS1Xm4OR76rwIX9TRx-120" value="2: getAll()" style="text;whiteSpace=wrap;html=1;" vertex="1" parent="1">
          <mxGeometry x="450" y="643" width="140" height="40" as="geometry" />
        </mxCell>
        <mxCell id="MmyS1Xm4OR76rwIX9TRx-121" value="&lt;span style=&quot;font-size: 12px; text-align: left; text-wrap-mode: wrap;&quot;&gt;List&amp;lt;Grupo&amp;lt;Inimigo&amp;gt;&amp;gt;&lt;/span&gt;" style="html=1;verticalAlign=bottom;endArrow=open;dashed=1;endSize=8;curved=0;rounded=0;" edge="1" parent="1" source="MmyS1Xm4OR76rwIX9TRx-113">
          <mxGeometry relative="1" as="geometry">
            <mxPoint x="828.5" y="724.9999999999998" as="sourcePoint" />
            <mxPoint x="600.810344827586" y="724.9999999999998" as="targetPoint" />
          </mxGeometry>
        </mxCell>
        <mxCell id="MmyS1Xm4OR76rwIX9TRx-122" value="&lt;span style=&quot;font-size: 12px; text-align: left; text-wrap-mode: wrap;&quot;&gt;List&amp;lt;Grupo&amp;lt;Inimigo&amp;gt;&amp;gt;&lt;/span&gt;" style="html=1;verticalAlign=bottom;endArrow=open;dashed=1;endSize=8;curved=0;rounded=0;" edge="1" parent="1" source="MmyS1Xm4OR76rwIX9TRx-108">
          <mxGeometry relative="1" as="geometry">
            <mxPoint x="590" y="740" as="sourcePoint" />
            <mxPoint x="380" y="740" as="targetPoint" />
          </mxGeometry>
        </mxCell>
        <mxCell id="MmyS1Xm4OR76rwIX9TRx-123" value="&lt;span style=&quot;font-size: 12px; text-align: left; text-wrap-mode: wrap;&quot;&gt;List&amp;lt;Grupo&amp;lt;Inimigo&amp;gt;&amp;gt;&lt;/span&gt;" style="html=1;verticalAlign=bottom;endArrow=open;dashed=1;endSize=8;curved=0;rounded=0;" edge="1" parent="1">
          <mxGeometry relative="1" as="geometry">
            <mxPoint x="370" y="770" as="sourcePoint" />
            <mxPoint x="160" y="770" as="targetPoint" />
          </mxGeometry>
        </mxCell>
        <mxCell id="MmyS1Xm4OR76rwIX9TRx-124" value="4: &amp;lt;&amp;lt;Grupo selecionado&amp;gt;&amp;gt;" style="text;html=1;align=center;verticalAlign=middle;resizable=0;points=[];autosize=1;strokeColor=none;fillColor=none;" vertex="1" parent="1">
          <mxGeometry x="160" y="788" width="170" height="30" as="geometry" />
        </mxCell>
      </root>
    </mxGraphModel>
  </diagram>
</mxfile>
